<?xml version="1.0" encoding="iso-8859-1"?>
<!-- Generator: Adobe Illustrator 16.0.0, SVG Export Plug-In . SVG Version: 6.00 Build 0)  -->
<!DOCTYPE svg PUBLIC "-//W3C//DTD SVG 1.1//EN" "http://www.w3.org/Graphics/SVG/1.1/DTD/svg11.dtd">
<svg version="1.1" id="Capa_1" xmlns="http://www.w3.org/2000/svg" xmlns:xlink="http://www.w3.org/1999/xlink" x="0px" y="0px"
	 width="71.68px" height="71.68px" viewBox="0 0 71.68 71.68" style="enable-background:new 0 0 71.68 71.68;" xml:space="preserve"
	>
<g>
	<g>
		<g>
			<path d="M64.96,0H6.72C2.911,0,0,2.912,0,6.72v58.239c0,3.809,2.911,6.721,6.72,6.721h58.24c3.808,0,6.72-2.912,6.72-6.721V6.72
				C71.68,2.912,68.768,0,64.96,0z M25.088,4.704c1.344,0,2.688,1.12,2.688,2.688c0,1.567-1.12,2.688-2.688,2.688
				c-1.345,0-2.688-1.12-2.688-2.688S23.52,4.704,25.088,4.704z M17.472,4.704c1.344,0,2.688,1.12,2.688,2.688
				c0,1.567-1.119,2.688-2.688,2.688c-1.569,0-2.688-1.12-2.688-2.688C14.783,5.824,16.128,4.704,17.472,4.704z M10.08,4.704
				c1.344,0,2.688,1.12,2.688,2.688c0,1.567-1.12,2.688-2.688,2.688S7.392,8.96,7.392,7.392S8.736,4.704,10.08,4.704z M63.84,59.359
				c0,2.466-2.017,4.48-4.48,4.48H12.32c-2.464,0-4.479-2.016-4.479-4.48V19.04c0-2.464,2.016-4.479,4.479-4.479h19.04
				c4.256,0,4.48,0,4.48-2.24c0-2.912,2.016-4.479,4.479-4.479h19.041c2.465,0,4.479,2.016,4.479,4.479L63.84,59.359L63.84,59.359z"
				/>
			<path d="M47.04,32.257h-2.017v-3.584c0-4.929-4.031-9.185-9.185-9.185c-5.153,0-9.185,4.031-9.185,9.185v3.584H24.64
				c-1.12,0-2.24,0.896-2.24,2.239v15.456c0,1.121,0.896,2.239,2.24,2.239h22.4c1.119,0,2.237-0.896,2.237-2.239V34.496
				C49.279,33.153,48.159,32.257,47.04,32.257z M40.991,32.257H30.688v-3.584c0-2.912,2.24-5.152,5.152-5.152
				c2.912,0,5.151,2.24,5.151,5.152V32.257L40.991,32.257z"/>
		</g>
	</g>
</g>
<g>
</g>
<g>
</g>
<g>
</g>
<g>
</g>
<g>
</g>
<g>
</g>
<g>
</g>
<g>
</g>
<g>
</g>
<g>
</g>
<g>
</g>
<g>
</g>
<g>
</g>
<g>
</g>
<g>
</g>
</svg>
